<svg width="200" height="200" viewBox="0 0 200 200" fill="none" xmlns="http://www.w3.org/2000/svg">
<rect x="35" y="60" width="20" height="80" fill="#262626"/>
<path d="M74.9994 60V140H54.9994L74.9994 60Z" fill="#262626"/>
<path d="M74.9994 60V140H54.9994L74.9994 60Z" fill="#262626"/>
<path d="M74.9994 60V140H54.9994L74.9994 60Z" fill="#262626"/>
<path d="M74.9983 140V60H94.9983L74.9983 140Z" fill="#262626"/>
<path d="M74.9983 140V60H94.9983L74.9983 140Z" fill="#262626"/>
<path d="M74.9983 140V60H94.9983L74.9983 140Z" fill="#262626"/>
<rect x="116.365" y="60" width="20" height="80" fill="#262626"/>
<rect width="19.9998" height="79.9985" transform="matrix(0.573566 -0.81916 0.819144 0.573587 87.9985 86.7502)" fill="#262626"/>
<rect width="19.9998" height="79.9985" transform="matrix(0.573566 0.81916 0.819144 -0.573587 87.9985 116.253)" fill="#262626"/>
</svg>
