<svg width="24" height="24" viewBox="0 0 24 24" fill="none" xmlns="http://www.w3.org/2000/svg">
<rect x="4.19995" y="7.19995" width="2.4" height="9.6" fill="white"/>
<path d="M8.99985 7.19995V16.8H6.59985L8.99985 7.19995Z" fill="white"/>
<path d="M8.99985 7.19995V16.8H6.59985L8.99985 7.19995Z" fill="white"/>
<path d="M8.99985 7.19995V16.8H6.59985L8.99985 7.19995Z" fill="white"/>
<path d="M8.99966 16.7999V7.19993H11.3997L8.99966 16.7999Z" fill="white"/>
<path d="M8.99966 16.7999V7.19993H11.3997L8.99966 16.7999Z" fill="white"/>
<path d="M8.99966 16.7999V7.19993H11.3997L8.99966 16.7999Z" fill="white"/>
<rect x="13.9637" y="7.19995" width="2.4" height="9.6" fill="white"/>
<rect width="2.39998" height="9.59982" transform="matrix(0.573566 -0.81916 0.819144 0.573587 10.5598 10.41)" fill="white"/>
<rect width="2.39998" height="9.59982" transform="matrix(0.573566 0.81916 0.819144 -0.573587 10.5598 13.9503)" fill="white"/>
</svg>
