<svg width="50" height="50" viewBox="0 0 50 50" fill="none" xmlns="http://www.w3.org/2000/svg">
<rect x="9" y="15" width="4.92308" height="20" fill="#262626"/>
<path d="M18.846 15V35H13.923L18.846 15Z" fill="#262626"/>
<path d="M18.846 15V35H13.923L18.846 15Z" fill="#262626"/>
<path d="M18.846 15V35H13.923L18.846 15Z" fill="#262626"/>
<path d="M18.8457 35V15H23.7688L18.8457 35Z" fill="#262626"/>
<path d="M18.8457 35V15H23.7688L18.8457 35Z" fill="#262626"/>
<path d="M18.8457 35V15H23.7688L18.8457 35Z" fill="#262626"/>
<rect x="29.0283" y="15" width="4.92308" height="20" fill="#262626"/>
<rect width="4.97478" height="19.7937" transform="matrix(0.567599 -0.823305 0.814933 0.579555 22.0458 21.6875)" fill="#262626"/>
<rect width="4.97478" height="19.7937" transform="matrix(0.567599 0.823305 0.814933 -0.579555 22.0458 29.0632)" fill="#262626"/>
</svg>
